<?xml version="1.0" encoding="UTF-8"?>
<svg xmlns="http://www.w3.org/2000/svg" viewBox="0 0 141 236" width="141" height="236">
  <defs>
    <style>
      .logo-white { fill: #ffffff; }
      .logo-accent { fill: #00FF88; }
      .logo-dark { fill: #0a0a0f; }
    </style>
  </defs>
  <path class="logo-white" d="M 5 5 L 5 230 L 16 231 L 16 209 L 32 199 L 26 189 L 45 203 L 65 211 L 120 209 L 133 204 L 136 201 L 136 193 L 131 164 L 101 109 L 69 99 L 59 117 L 59 121 L 61 123 L 63 121 L 66 126 L 68 126 L 69 119 L 70 126 L 75 129 L 83 127 L 83 125 L 76 123 L 78 116 L 79 121 L 86 124 L 95 122 L 100 134 L 99 137 L 92 128 L 97 147 L 95 169 L 100 183 L 93 176 L 89 164 L 80 155 L 73 152 L 63 152 L 50 159 L 52 149 L 48 140 L 42 134 L 30 128 L 13 127 L 26 124 L 28 118 L 26 96 L 14 96 L 31 91 L 41 83 L 48 68 L 48 61 L 44 57 L 46 56 L 58 61 L 66 61 L 77 57 L 87 47 L 90 37 L 96 30 L 92 48 L 100 64 L 100 73 L 103 67 L 105 67 L 104 80 L 98 75 L 90 75 L 88 73 L 82 76 L 81 81 L 79 77 L 77 78 L 76 82 L 80 95 L 84 98 L 106 97 L 112 94 L 125 50 L 121 17 L 113 12 L 63 9 L 47 13 L 28 28 L 27 26 L 31 21 L 16 12 L 16 5 Z M 129 191 L 129 193 L 128 194 L 128 195 L 127 196 L 127 197 L 124 200 L 123 200 L 122 201 L 120 201 L 119 202 L 114 202 L 113 201 L 114 200 L 117 200 L 118 199 L 119 199 L 120 198 L 121 198 L 123 196 L 124 196 L 124 195 L 126 193 L 126 192 L 128 190 Z M 90 190 L 91 189 L 92 189 L 93 190 L 92 191 L 91 191 Z M 24 189 L 25 188 L 26 189 L 25 190 Z M 101 184 L 102 183 L 103 184 L 102 185 Z M 100 183 L 101 182 L 102 183 L 101 184 Z M 45 181 L 46 180 L 47 180 L 48 181 L 49 181 L 50 182 L 51 182 L 52 183 L 54 183 L 55 184 L 56 184 L 57 185 L 60 185 L 61 186 L 74 186 L 75 185 L 84 185 L 85 186 L 87 186 L 88 187 L 89 187 L 91 189 L 90 190 L 89 190 L 88 189 L 87 189 L 86 188 L 76 188 L 75 189 L 72 189 L 71 190 L 65 190 L 64 189 L 62 189 L 64 191 L 65 191 L 66 192 L 67 192 L 68 193 L 69 193 L 70 194 L 71 194 L 72 195 L 74 195 L 75 196 L 79 196 L 80 197 L 79 198 L 74 198 L 73 197 L 69 197 L 68 196 L 67 196 L 66 195 L 64 195 L 62 193 L 61 193 L 58 190 L 58 189 L 57 188 L 55 188 L 54 187 L 53 187 L 52 186 L 51 186 L 50 185 L 49 185 Z M 44 180 L 45 179 L 46 180 L 45 181 Z M 43 179 L 44 178 L 45 179 L 44 180 Z M 38 169 L 32 175 L 31 175 L 29 177 L 27 177 L 26 178 L 23 178 L 22 179 L 15 179 L 14 178 L 16 176 L 21 176 L 22 175 L 24 175 L 25 174 L 26 174 L 27 173 L 29 173 L 31 171 L 32 171 L 33 170 L 34 170 L 36 168 L 37 168 Z M 37 168 L 38 167 L 39 168 L 38 169 Z M 115 158 L 117 160 L 117 161 L 118 162 L 118 163 L 119 164 L 119 165 L 120 166 L 120 168 L 121 169 L 121 171 L 122 172 L 122 182 L 121 183 L 121 185 L 120 186 L 120 187 L 119 188 L 118 187 L 118 182 L 119 181 L 119 180 L 118 179 L 118 171 L 117 170 L 117 167 L 116 166 L 116 164 L 115 163 L 115 161 L 114 160 L 114 159 Z M 48 159 L 49 158 L 50 159 L 49 160 Z M 113 157 L 114 156 L 115 157 L 115 158 L 114 159 L 113 158 Z M 112 155 L 113 154 L 114 155 L 114 156 L 113 157 L 112 156 Z M 111 154 L 112 153 L 113 154 L 112 155 Z M 100 140 L 101 139 L 102 140 L 101 141 Z M 99 137 L 100 136 L 101 137 L 101 138 L 100 139 L 99 138 Z M 64 117 L 65 118 L 65 121 L 64 122 L 63 121 L 63 118 Z M 70 114 L 71 115 L 71 118 L 70 119 L 69 118 L 69 115 Z M 64 115 L 65 114 L 66 115 L 65 116 Z M 89 74 L 90 75 L 88 77 L 88 78 L 87 79 L 88 80 L 88 85 L 87 86 L 86 85 L 86 82 L 85 81 L 85 77 L 88 74 Z M 43 56 L 44 55 L 45 56 L 44 57 Z M 110 55 L 111 54 L 112 55 L 111 56 Z M 34 53 L 35 52 L 36 53 L 35 54 Z M 33 52 L 34 51 L 35 52 L 34 53 Z M 112 50 L 113 51 L 113 53 L 112 54 L 111 53 L 111 51 Z M 13 43 L 14 42 L 20 42 L 21 43 L 24 43 L 25 44 L 26 44 L 27 45 L 28 45 L 34 51 L 33 52 L 32 52 L 30 50 L 29 50 L 28 49 L 27 49 L 26 48 L 25 48 L 24 47 L 23 47 L 22 46 L 20 46 L 19 45 L 15 45 Z M 38 38 L 39 37 L 40 38 L 39 39 Z M 39 37 L 40 36 L 41 37 L 40 38 Z M 40 36 L 41 35 L 42 36 L 41 37 Z M 96 30 L 97 29 L 98 30 L 97 31 Z M 26 28 L 27 27 L 28 28 L 27 29 Z M 110 25 L 113 28 L 113 29 L 114 30 L 114 31 L 115 32 L 115 34 L 116 35 L 116 43 L 115 44 L 115 47 L 114 48 L 114 50 L 113 51 L 112 50 L 112 35 L 111 34 L 111 31 L 110 30 L 110 28 L 109 27 L 109 26 Z M 87 26 L 88 25 L 89 26 L 88 27 Z M 108 25 L 109 24 L 110 25 L 109 26 Z M 89 25 L 90 24 L 91 25 L 90 26 Z M 88 27 L 87 28 L 86 28 L 85 29 L 83 29 L 82 30 L 72 30 L 71 29 L 57 29 L 56 30 L 54 30 L 53 31 L 51 31 L 50 32 L 49 32 L 48 33 L 47 33 L 46 34 L 45 34 L 43 36 L 42 36 L 41 35 L 45 31 L 46 31 L 48 29 L 49 29 L 50 28 L 52 28 L 53 27 L 54 27 L 55 26 L 55 25 L 58 22 L 59 22 L 60 21 L 61 21 L 62 20 L 64 20 L 65 19 L 68 19 L 69 18 L 77 18 L 78 19 L 77 20 L 71 20 L 70 21 L 68 21 L 67 22 L 65 22 L 64 23 L 63 23 L 62 24 L 61 24 L 60 25 L 59 25 L 58 26 L 61 26 L 62 25 L 67 25 L 68 26 L 72 26 L 73 27 L 83 27 L 84 26 L 87 26 Z" fill-rule="evenodd"/>
</svg>